{"title":"The Young Montalbano S01E06 - Seven Mondays x264 RB58.mp4","uid":12363529,"size":1315726648,"categoryP":"video","categoryS":"tv_shows","magnet":"?xt=urn:btih:159159d77196e8f0a45e32145d5ad5b4f001606d&amp;dn=The+Young+Montalbano+S01E06+-+Seven+Mondays+x264+RB58.mp4&amp;tr=udp%3A%2F%2Ftracker.openbittorrent.com%3A80&amp;tr=udp%3A%2F%2Fopen.demonii.com%3A1337&amp;tr=udp%3A%2F%2Ftracker.coppersurfer.tk%3A6969&amp;tr=udp%3A%2F%2Fexodus.desync.com%3A6969","seeders":5,"leechers":2,"uploader":"RedBaron58","files":1,"time":1441561392,"description":"The Young Montalbano S01E06 - Seven Mondays x264 mp4\nIn Italian with hard coded BBC subtitles\n &lt;a href=&quot;\nhttp://www.imdb.com/title/tt2259665/&quot; rel=&quot;nofollow&quot; target=&quot;_NEW&quot;&gt;\nhttp://www.imdb.com/title/tt2259665/&lt;/a&gt;\n\nTrailer:\n\n\nPlease be patient My intial upload speed is limited.\nThank you for your kind comments and feedback on my other torrents, your feedback is welcome.\n\n\nAbout the Episode:\nThe town of Vigata is shaken by the murder of a rich old man, and Montalbano must overcome a lack of \nconcrete evidence as he investigates a mystery killer thought to be behind a series of animal shootings. \nIn Italian. Last in the series.\n\n\nI hope you enjoy.\n\n\nTechnical:\n\nGeneral\nComplete name                            : H:The Young Montalbano S01E06 - Seven Mondays x264 RB58.mp4\nFormat                                   : AVI\nFormat/Info                              : Audio Video Interleave\nFile size                                : 1.23 GiB\nDuration                                 : 592h 1mn\nOverall bit rate                         : 4 939 bps\n\nVideo\nID                                       : 0\nFormat                                   : AVC\nFormat/Info                              : Advanced Video Codec\nFormat profile                           : &lt;a class=&quot;__cf_email__&quot; href=&quot;/cdn-cgi/l/email-protection&quot; data-cfemail=&quot;4f072628270f037c617f&quot;&gt;[email&amp;#160;protected]&lt;/a&gt;&lt;script data-cfhash='f9e31' type=&quot;text/javascript&quot;&gt;\n/* &lt;![CDATA[ */!function(){try{var t=&quot;currentScript&quot;in document?document.currentScript:function(){for(var t=document.getElementsByTagName(&quot;script&quot;),e=t.length;e--;)if(t[e].getAttribute(&quot;data-cfhash&quot;))return t[e]}();if(t&amp;&amp;t.previousSibling){var e,r,n,i,c=t.previousSibling,a=c.getAttribute(&quot;data-cfemail&quot;);if(a){for(e=&quot;&quot;,r=parseInt(a.substr(0,2),16),n=2;a.length-n;n+=2)i=parseInt(a.substr(n,2),16)^r,e+=String.fromCharCode(i);e=document.createTextNode(e),c.parentNode.replaceChild(e,c)}t.parentNode.removeChild(t);}}catch(u){}}()/* ]]&gt; */&lt;/script&gt;\nFormat settings, CABAC                   : Yes\nFormat settings, ReFrames                : 4 frames\nCodec ID                                 : H264\nDuration                                 : 1h 54mn\nBit rate                                 : 1 400 Kbps\nWidth                                    : 832 pixels\nHeight                                   : 468 pixels\nDisplay aspect ratio                     : 16:9\nFrame rate                               : 25.000 fps\nColor space                              : YUV\nChroma subsampling                       : 4:2:0\nBit depth                                : 8 bits\nScan type                                : Progressive\nBits/(Pixel*Frame)                       : 0.144\nStream size                              : 1.12 GiB (91%)\nWriting library                          : x264 core 123 r2189 35cf912\nEncoding settings                        : cabac=1 / ref=3 / deblock=1:0:0\n\nAudio\nID                                       : 1\nFormat                                   : AAC\nFormat/Info                              : Advanced Audio Codec\nFormat profile                           : LC\nCodec ID                                 : FF\nDuration                                 : 592h 1mn\nSource duration                          : 1h 58mn\nBit rate                                 : 112 Kbps\nChannel(s)                               : 2 channels\nChannel positions                        : Front: L R\nSampling rate                            : 48.0 KHz\nCompression mode                         : Lossy\nStream size                              : 95.3 MiB (8%)\nAlignment                                : Split accross interleaves\nInterleave, duration                     : 21 ms (0.53 video frame)","torrent":{"xt":"urn:btih:159159d77196e8f0a45e32145d5ad5b4f001606d","amp;dn":"The+Young+Montalbano+S01E06+-+Seven+Mondays+x264+RB58.mp4","amp;tr":["udp%3A%2F%2Ftracker.openbittorrent.com%3A80","udp%3A%2F%2Fopen.demonii.com%3A1337","udp%3A%2F%2Ftracker.coppersurfer.tk%3A6969","udp%3A%2F%2Fexodus.desync.com%3A6969"],"infoHash":"159159d77196e8f0a45e32145d5ad5b4f001606d","infoHashBuffer":{"type":"Buffer","data":[21,145,89,215,113,150,232,240,164,94,50,20,93,90,213,180,240,1,96,109]},"announce":[],"urlList":[]}}